<?xml version="1.0" encoding="UTF-8" standalone="no"?>
<!DOCTYPE svg PUBLIC "-//W3C//DTD SVG 1.1//EN"
 "http://www.w3.org/Graphics/SVG/1.1/DTD/svg11.dtd">
<!-- Generated by graphviz version 2.47.0 (20210316.0004)
 -->
<!-- Title: dependencies Pages: 1 -->
<svg width="620pt" height="284pt"
 viewBox="0.00 0.00 620.00 284.00" xmlns="http://www.w3.org/2000/svg" xmlns:xlink="http://www.w3.org/1999/xlink">
<g id="graph0" class="graph" transform="scale(1 1) rotate(0) translate(4 280)">
<title>dependencies</title>
<polygon fill="white" stroke="transparent" points="-4,4 -4,-280 616,-280 616,4 -4,4"/>
<text text-anchor="start" x="285.01" y="-42.4" font-family="Times-12" font-weight="bold" font-size="14.00">Legend</text>
<polygon fill="#ffffb3" stroke="transparent" points="72,-10 72,-30 92,-30 92,-10 72,-10"/>
<text text-anchor="start" x="95.63" y="-15.4" font-family="Times-12" font-size="14.00"> &#160;Declarations</text>
<polygon fill="#8dd3c7" stroke="transparent" points="185,-10 185,-30 205,-30 205,-10 185,-10"/>
<text text-anchor="start" x="208.73" y="-15.4" font-family="Times-12" font-size="14.00"> &#160;Module</text>
<polygon fill="#80b1d3" stroke="transparent" points="271,-10 271,-30 291,-30 291,-10 271,-10"/>
<text text-anchor="start" x="294.78" y="-15.4" font-family="Times-12" font-size="14.00"> &#160;Bootstrap</text>
<polygon fill="#fdb462" stroke="transparent" points="368,-10 368,-30 388,-30 388,-10 368,-10"/>
<text text-anchor="start" x="391.67" y="-15.4" font-family="Times-12" font-size="14.00"> &#160;Providers</text>
<polygon fill="#fb8072" stroke="transparent" points="464,-10 464,-30 484,-30 484,-10 464,-10"/>
<text text-anchor="start" x="487.73" y="-15.4" font-family="Times-12" font-size="14.00"> &#160;Exports</text>
<g id="clust1" class="cluster">
<title>cluster_AppModule</title>
<polygon fill="none" stroke="black" stroke-dasharray="1,5" points="8,-70 8,-268 604,-268 604,-70 8,-70"/>
</g>
<g id="clust2" class="cluster">
<title>cluster_AppModule_declarations</title>
<polygon fill="none" stroke="black" points="168,-78 168,-130 596,-130 596,-78 168,-78"/>
</g>
<g id="clust6" class="cluster">
<title>cluster_AppModule_imports</title>
<polygon fill="none" stroke="black" points="16,-78 16,-130 160,-130 160,-78 16,-78"/>
</g>
<g id="clust8" class="cluster">
<title>cluster_AppModule_bootstrap</title>
<polygon fill="none" stroke="black" points="248,-208 248,-260 372,-260 372,-208 248,-208"/>
</g>
<!-- AppComponent -->
<g id="node1" class="node">
<title>AppComponent</title>
<polygon fill="#ffffb3" stroke="black" points="587.94,-122 482.06,-122 482.06,-86 587.94,-86 587.94,-122"/>
<text text-anchor="middle" x="535" y="-99.8" font-family="Times,serif" font-size="14.00">AppComponent</text>
</g>
<!-- AppModule -->
<g id="node4" class="node">
<title>AppModule</title>
<polygon fill="#8dd3c7" stroke="black" points="351.66,-187 348.66,-191 327.66,-191 324.66,-187 268.34,-187 268.34,-151 351.66,-151 351.66,-187"/>
<text text-anchor="middle" x="310" y="-164.8" font-family="Times,serif" font-size="14.00">AppModule</text>
</g>
<!-- AppComponent&#45;&gt;AppModule -->
<g id="edge1" class="edge">
<title>AppComponent&#45;&gt;AppModule</title>
<path fill="none" stroke="black" d="M535,-122.11C535,-141.34 535,-169 535,-169 535,-169 361.79,-169 361.79,-169"/>
<polygon fill="black" stroke="black" points="361.79,-165.5 351.79,-169 361.79,-172.5 361.79,-165.5"/>
</g>
<!-- DetailDialogComponent -->
<g id="node2" class="node">
<title>DetailDialogComponent</title>
<polygon fill="#ffffb3" stroke="black" points="463.64,-122 310.36,-122 310.36,-86 463.64,-86 463.64,-122"/>
<text text-anchor="middle" x="387" y="-99.8" font-family="Times,serif" font-size="14.00">DetailDialogComponent</text>
</g>
<!-- DetailDialogComponent&#45;&gt;AppModule -->
<g id="edge2" class="edge">
<title>DetailDialogComponent&#45;&gt;AppModule</title>
<path fill="none" stroke="black" d="M331,-122.11C331,-122.11 331,-140.99 331,-140.99"/>
<polygon fill="black" stroke="black" points="327.5,-140.99 331,-150.99 334.5,-140.99 327.5,-140.99"/>
</g>
<!-- HomeComponent -->
<g id="node3" class="node">
<title>HomeComponent</title>
<polygon fill="#ffffb3" stroke="black" points="291.55,-122 176.45,-122 176.45,-86 291.55,-86 291.55,-122"/>
<text text-anchor="middle" x="234" y="-99.8" font-family="Times,serif" font-size="14.00">HomeComponent</text>
</g>
<!-- HomeComponent&#45;&gt;AppModule -->
<g id="edge3" class="edge">
<title>HomeComponent&#45;&gt;AppModule</title>
<path fill="none" stroke="black" d="M279.97,-122.11C279.97,-122.11 279.97,-140.99 279.97,-140.99"/>
<polygon fill="black" stroke="black" points="276.47,-140.99 279.97,-150.99 283.47,-140.99 276.47,-140.99"/>
</g>
<!-- AppComponent  -->
<g id="node6" class="node">
<title>AppComponent </title>
<polygon fill="#80b1d3" stroke="black" points="364.44,-252 255.56,-252 255.56,-216 364.44,-216 364.44,-252"/>
<text text-anchor="middle" x="310" y="-229.8" font-family="Times,serif" font-size="14.00">AppComponent </text>
</g>
<!-- AppModule&#45;&gt;AppComponent  -->
<g id="edge5" class="edge">
<title>AppModule&#45;&gt;AppComponent </title>
<path fill="none" stroke="black" stroke-dasharray="1,5" d="M310,-187.11C310,-187.11 310,-205.99 310,-205.99"/>
<polygon fill="black" stroke="black" points="306.5,-205.99 310,-215.99 313.5,-205.99 306.5,-205.99"/>
</g>
<!-- AppRoutingModule -->
<g id="node5" class="node">
<title>AppRoutingModule</title>
<polygon fill="#8dd3c7" stroke="black" points="152.27,-122 149.27,-126 128.27,-126 125.27,-122 23.73,-122 23.73,-86 152.27,-86 152.27,-122"/>
<text text-anchor="middle" x="88" y="-99.8" font-family="Times,serif" font-size="14.00">AppRoutingModule</text>
</g>
<!-- AppRoutingModule&#45;&gt;AppModule -->
<g id="edge4" class="edge">
<title>AppRoutingModule&#45;&gt;AppModule</title>
<path fill="none" stroke="black" d="M88,-122.11C88,-141.34 88,-169 88,-169 88,-169 258.24,-169 258.24,-169"/>
<polygon fill="black" stroke="black" points="258.24,-172.5 268.24,-169 258.24,-165.5 258.24,-172.5"/>
</g>
</g>
</svg>
